PathFileType	4	(X/Y/Z)	C:/Users/opensim2020/Desktop/walking_exp_matlab/subject06_walking21_straight_01_cyclic.trc	
DataRate	CameraRate	NumFrames	NumMarkers	Units	OrigDataRate	OrigDataStartFrame	OrigNumFrames	
100.00	100.00	6	44	mm	100.00	811	102	
Frame#	Time	LFHD			RFHD			LBHD			RBHD			C7			T10			CLAV			STRN			RBAK			LSHO			LUPA			LELB			LFRM			LWRA			LWRB			LFIN			RSHO			RUPA			RELB			RFRM			RWRA			RWRB			RFIN			LASI			RASI			LPSI			RPSI			LTHI			LKNE			LTIB			LANK			LHEE			LTOE			RTHI			RKNE			RTIB			RANK			RHEE			RTOE			*39			*40			*41			*42			*43			
		X1	Y1	Z1	X2	Y2	Z2	X3	Y3	Z3	X4	Y4	Z4	X5	Y5	Z5	X6	Y6	Z6	X7	Y7	Z7	X8	Y8	Z8	X9	Y9	Z9	X10	Y10	Z10	X11	Y11	Z11	X12	Y12	Z12	X13	Y13	Z13	X14	Y14	Z14	X15	Y15	Z15	X16	Y16	Z16	X17	Y17	Z17	X18	Y18	Z18	X19	Y19	Z19	X20	Y20	Z20	X21	Y21	Z21	X22	Y22	Z22	X23	Y23	Z23	X24	Y24	Z24	X25	Y25	Z25	X26	Y26	Z26	X27	Y27	Z27	X28	Y28	Z28	X29	Y29	Z29	X30	Y30	Z30	X31	Y31	Z31	X32	Y32	Z32	X33	Y33	Z33	X34	Y34	Z34	X35	Y35	Z35	X36	Y36	Z36	X37	Y37	Z37	X38	Y38	Z38	X39	Y39	Z39	X40	Y40	Z40	X41	Y41	Z41	X42	Y42	Z42	X43	Y43	Z43	X44	Y44	Z44	

52	0.510	-1058.49280	-349.60706	1628.68689	-927.50928	-356.45801	1613.66174	-1067.01709	-484.30121	1579.65784	-937.98376	-489.13562	1569.75183	-1006.54095	-492.80368	1416.63208	-997.17023	-528.14185	1086.36169	-1008.18372	-383.08231	1337.73560	-1009.25049	-342.96298	1164.94104	-920.69324	-565.10724	1246.35242	-1168.72827	-448.94949	1365.53015	-1236.30420	-511.29758	1175.66455	-1245.01660	-557.19556	1072.84680	-1276.31226	-594.58130	929.74786	-1256.55811	-572.03015	796.53882	-1274.87390	-638.75549	818.76947	-1287.30139	-636.74457	728.74902	-845.10535	-424.79407	1374.92468	-747.38702	-458.53384	1181.83398	-728.19019	-442.15909	1061.64587	-714.81030	-395.36185	952.01190	-758.46765	-299.94186	841.38208	-713.18665	-346.31320	824.71796	-716.57642	-286.47934	767.17126	-1100.89417	-340.18741	938.62860	-884.11517	-358.36490	929.45251	-1092.12488	-498.98779	957.20587	-924.76715	-506.07718	954.52893	-1173.46704	-318.46600	633.84216	-1141.24268	-255.24156	487.88397	-1135.64807	-232.79343	231.63618	-1093.03198	-205.34792	62.99189	-1045.08875	-244.60394	48.92683	-1086.53223	-60.31004	43.50766	-843.44519	-465.46841	598.86774	-862.18414	-490.82809	473.34222	-873.59143	-689.87482	286.87000	-920.52539	-821.54547	157.80351	-966.29382	-863.36932	168.39378	-926.81726	-738.55695	31.81620	-1003.25775	-451.00772	1668.65039												 
53	0.520	-1059.78784	-336.17938	1631.25037	-928.90314	-343.35046	1616.39819	-1068.51880	-470.69400	1582.30591	-939.42572	-475.88293	1572.53052	-1007.92450	-478.55298	1419.19543	-998.34064	-513.56110	1089.10449	-1009.23340	-368.89151	1340.50391	-1010.53125	-328.36786	1167.93140	-922.21033	-550.52130	1248.77783	-1169.99109	-433.91919	1368.71570	-1237.86011	-494.53326	1178.22839	-1246.60645	-539.40289	1074.99072	-1277.61450	-575.56250	931.64197	-1257.12231	-552.47571	798.58276	-1276.69397	-618.96637	820.40808	-1288.23010	-616.13245	730.14990	-846.41180	-411.13080	1377.87756	-749.40308	-446.43536	1184.82678	-730.66846	-430.14780	1064.38245	-716.33386	-385.62888	953.69684	-758.66351	-292.19821	840.91833	-713.66980	-339.39600	825.33514	-716.36420	-280.68631	766.62891	-1102.42505	-325.87027	942.36353	-886.33954	-342.60172	931.95227	-1092.10583	-484.48376	960.11932	-924.85876	-490.71893	956.58228	-1174.49329	-303.41760	637.91083	-1141.56055	-242.37428	490.36899	-1136.97583	-225.23587	232.80118	-1093.13843	-203.22514	63.09554	-1045.94055	-243.18314	49.78702	-1085.68127	-58.82595	41.34970	-843.78314	-444.52884	598.80212	-861.37402	-466.91037	472.78110	-873.83197	-670.03076	292.39410	-921.07520	-806.11279	168.98767	-967.48663	-845.95062	182.28329	-927.27948	-735.15454	34.53813	-1004.75299	-437.57422	1671.19104												 
54	0.530	-1060.95813	-322.65869	1633.57910	-929.99799	-330.08386	1618.89038	-1069.84583	-457.15945	1584.53735	-940.77362	-462.47983	1575.03308	-1009.24121	-464.45053	1421.28442	-999.28772	-499.31042	1091.77734	-1010.27356	-354.58087	1343.07983	-1011.83075	-313.64996	1170.72095	-923.46210	-535.97003	1251.33704	-1170.88940	-418.86249	1371.75391	-1239.13562	-477.62650	1180.83459	-1248.05005	-521.42444	1077.37305	-1279.14832	-555.74146	933.52234	-1257.58545	-531.46497	800.80017	-1278.57031	-597.80994	821.81970	-1289.01196	-594.09180	731.26935	-847.93188	-397.41006	1380.76880	-751.35889	-434.08105	1187.93103	-733.20251	-418.34830	1067.30737	-717.89618	-376.06430	955.69763	-758.93359	-284.84357	840.51141	-714.42639	-332.88828	826.08191	-716.18347	-275.44611	766.01685	-1104.73560	-311.28775	946.01965	-888.53668	-327.09509	934.45551	-1091.90430	-470.49316	962.87671	-925.31171	-475.09796	958.46979	-1175.60376	-289.76675	640.90167	-1141.86438	-231.06018	491.90604	-1137.56055	-218.04312	233.40630	-1092.73865	-201.14992	63.34948	-1045.98291	-241.95335	50.52128	-1084.53662	-57.30938	39.50285	-844.29852	-423.18930	598.71039	-860.69812	-442.57172	472.44318	-873.83502	-648.71204	297.83881	-921.76508	-789.07721	179.82285	-968.30603	-827.21783	195.96414	-927.77460	-729.02374	38.57272	-1006.22137	-424.19583	1673.67310												 
55	0.540	-1062.22180	-309.26495	1635.87183	-931.19379	-316.79712	1621.44727	-1071.07129	-443.66043	1586.37524	-942.37885	-449.05463	1577.36755	-1010.52649	-450.34753	1423.07703	-1000.17987	-484.99130	1094.25708	-1011.30078	-340.20474	1345.46240	-1013.05585	-298.93579	1173.25769	-924.51581	-521.41211	1253.76001	-1171.92566	-403.72150	1374.98303	-1240.77502	-460.69113	1183.63855	-1249.75464	-503.28671	1079.71997	-1280.83936	-535.20856	935.21509	-1258.14880	-509.57065	802.84106	-1280.53540	-575.68872	822.97546	-1289.75696	-570.77954	732.06757	-849.49109	-383.55118	1383.44556	-753.09393	-421.34811	1190.98962	-735.62103	-406.88275	1070.15759	-719.39484	-366.71420	957.67957	-759.29028	-277.79797	840.07025	-714.91034	-326.88901	826.84924	-716.31104	-270.34433	765.36945	-1106.80981	-297.78937	948.97131	-890.77399	-311.87939	936.83374	-1091.95972	-456.72360	965.37103	-925.58203	-460.03018	960.28595	-1176.37659	-278.36771	642.25793	-1142.15479	-221.20457	492.42682	-1137.50952	-211.28687	233.35229	-1092.05798	-199.34476	63.34943	-1045.68811	-240.96617	51.15277	-1083.61682	-56.03403	38.23287	-844.60059	-401.86191	598.79712	-860.31995	-418.32498	472.05188	-874.11157	-626.01794	303.10205	-922.27002	-770.10992	190.67561	-969.01208	-806.17932	209.50154	-927.74780	-721.74377	42.96779	-1007.69263	-410.97250	1675.82373												 
56	0.550	-1063.32983	-296.04306	1638.14014	-932.49554	-303.34735	1624.06470	-1072.16174	-430.08896	1588.01074	-943.38379	-435.59045	1579.17041	-1011.81152	-436.36603	1424.94897	-1001.26575	-470.84296	1096.71008	-1012.32458	-325.74521	1347.75122	-1014.24725	-284.35767	1175.57825	-925.50232	-507.19244	1256.14587	-1172.82874	-388.59531	1377.97925	-1242.23987	-443.87863	1186.17932	-1251.57117	-484.97635	1081.77026	-1282.68726	-514.30072	936.62958	-1258.42468	-487.46857	804.35242	-1282.53333	-552.73621	823.64130	-1290.36829	-546.36176	732.47589	-850.98749	-369.66983	1385.78821	-754.66833	-408.48300	1193.85681	-737.72784	-395.74564	1072.74182	-720.78589	-357.58450	959.43445	-759.66962	-270.72397	839.44208	-715.79340	-320.59235	827.42822	-716.67902	-265.26526	764.54352	-1108.51062	-285.09509	951.14545	-892.74384	-297.23672	939.09131	-1092.23853	-443.03564	967.51025	-925.66901	-445.65375	962.00427	-1176.67358	-268.78873	642.33868	-1142.44128	-212.43498	492.16919	-1136.51843	-205.54797	232.95050	-1091.20972	-198.33261	63.34502	-1045.09753	-240.40410	51.42236	-1082.89502	-55.28934	37.42660	-845.36023	-380.78442	599.11603	-860.62244	-393.84216	472.06705	-874.42163	-602.00537	307.75919	-922.32001	-749.12048	200.33112	-969.34552	-782.77539	221.65938	-927.44281	-713.90460	46.33047	-1008.97180	-397.90845	1677.82593												 
57	0.560	-1064.28418	-282.68741	1640.65356	-933.37805	-290.11389	1626.71448	-1073.16455	-416.52164	1589.67139	-944.34320	-422.14630	1580.95239	-1013.02917	-422.24228	1427.01990	-1002.32794	-456.70670	1099.10144	-1013.24823	-311.49808	1349.98059	-1015.44159	-270.04572	1177.71277	-926.54724	-493.33508	1258.47900	-1173.74048	-373.56506	1380.63708	-1243.97473	-426.97443	1188.59399	-1253.58667	-466.53949	1083.51392	-1284.59888	-492.90277	937.60785	-1259.09558	-463.27670	806.33160	-1284.51221	-529.13318	823.91425	-1290.97876	-520.95618	732.72101	-852.30396	-355.81619	1387.79871	-755.84656	-395.45026	1196.18555	-739.39404	-384.81354	1074.88843	-722.02850	-348.63681	960.74030	-760.13739	-263.90018	838.56384	-716.79053	-313.89630	827.63385	-717.25293	-260.38138	763.37598	-1110.82520	-271.38657	953.00702	-894.37433	-283.11063	941.28925	-1092.78931	-429.64981	969.63885	-926.17334	-431.20154	963.64240	-1176.75952	-260.12097	641.91119	-1142.60754	-204.25436	491.63971	-1135.26013	-201.76646	232.55081	-1090.55811	-197.73538	63.38385	-1045.20911	-240.02324	51.46806	-1082.26831	-54.66665	37.00627	-846.35077	-360.08911	599.60095	-861.40240	-368.89532	472.23010	-874.50952	-576.77460	311.69217	-922.21216	-726.40601	208.00116	-969.49506	-757.64923	231.98296	-927.37439	-702.33752	50.73641	-1010.03333	-384.90311	1679.75024												 
